<?xml version="1.0" standalone="no"?>
<!DOCTYPE svg PUBLIC "-//W3C//DTD SVG 20010904//EN"
 "http://www.w3.org/TR/2001/REC-SVG-20010904/DTD/svg10.dtd">
<svg version="1.0" xmlns="http://www.w3.org/2000/svg"
 width="576.000000pt" height="576.000000pt" viewBox="0 0 576.000000 576.000000"
 preserveAspectRatio="xMidYMid meet">
<metadata>
Created by potrace 1.11, written by Peter Selinger 2001-2013
</metadata>
<g transform="translate(0.000000,576.000000) scale(0.100000,-0.100000)"
fill="#000000" stroke="none">
<path d="M4478 5474 c-54 -16 -89 -54 -82 -88 4 -22 -2 -25 -66 -41 -67 -16
-70 -16 -97 3 -56 39 -157 45 -230 12 -45 -20 -55 -34 -58 -79 -1 -23 -8 -27
-65 -41 -64 -16 -66 -16 -98 6 -51 35 -157 42 -222 15 -42 -18 -60 -37 -64
-71 -4 -39 -11 -44 -82 -59 -50 -12 -56 -11 -86 10 -35 25 -128 37 -192 25
-55 -10 -96 -51 -96 -94 0 -19 -2 -33 -5 -30 -3 3 -34 -3 -69 -13 -62 -16 -65
-17 -80 0 -35 39 -147 52 -219 27 -55 -20 -77 -44 -77 -81 0 -32 -1 -33 -67
-48 -58 -13 -70 -13 -83 -1 -48 42 -175 52 -244 19 -40 -19 -56 -42 -59 -82
-2 -25 -9 -28 -87 -47 l-85 -21 -1 -270 c0 -148 2 -277 5 -287 5 -14 65 -67
175 -153 22 -16 44 -35 50 -40 6 -6 40 -33 75 -60 34 -28 86 -69 114 -92 28
-24 59 -43 68 -43 10 0 106 20 214 45 109 25 199 45 201 43 3 -4 3 -3 3 -348
-1 -135 -1 -265 0 -290 0 -25 0 -155 0 -290 -1 -135 0 -267 0 -295 0 -27 0
-165 0 -305 0 -140 0 -271 0 -290 0 -19 0 -155 0 -301 l0 -267 -43 13 c-63 19
-157 10 -202 -20 -22 -14 -28 -28 -36 -78 -2 -10 -7 -18 -13 -19 -5 0 -32 -7
-58 -15 -66 -20 -84 -12 -89 40 -3 23 -2 49 2 57 8 18 4 513 -4 543 -4 12 -44
51 -91 87 -63 48 -85 71 -85 88 0 36 -51 80 -100 88 -50 8 -140 75 -140 104 0
26 -39 69 -70 77 -59 16 -164 11 -203 -8 -40 -21 -49 -35 -52 -78 -1 -24 -7
-27 -71 -42 -65 -15 -70 -15 -84 2 -22 24 -90 40 -152 35 -94 -8 -141 -37
-142 -91 l-1 -35 -75 -16 c-41 -9 -82 -24 -90 -33 -12 -14 -15 -45 -13 -157 1
-141 2 -247 3 -704 0 -140 3 -263 6 -272 3 -9 104 -96 224 -193 l220 -176 1
-47 c0 -26 3 -54 7 -63 4 -10 79 -75 167 -145 179 -143 174 -139 234 -189 67
-54 77 -58 125 -46 22 6 79 19 126 30 47 11 126 29 175 41 79 19 374 86 415
95 8 2 56 13 105 25 50 11 122 28 160 36 39 9 79 18 90 21 36 9 264 62 299 68
10 3 57 13 105 25 86 20 316 73 574 132 159 37 151 27 150 168 -2 295 -3 488
-2 575 1 55 1 186 0 290 -1 105 -1 233 0 285 1 52 1 187 0 300 0 113 0 246 0
295 1 50 1 180 0 290 0 110 -1 310 -2 445 -1 135 -1 261 -1 280 3 143 1 550
-3 571 -6 24 -3 26 52 39 72 17 62 15 103 24 19 4 107 25 195 46 88 21 246 57
350 80 105 23 195 48 201 55 8 11 12 448 5 552 -1 7 -41 45 -91 85 -56 44 -90
79 -90 91 0 44 -47 81 -114 90 -21 2 -80 41 -112 72 -6 6 -15 25 -18 43 -15
64 -133 97 -238 66z"/>
</g>
</svg>
